<svg width="75" height="86" viewBox="0 0 75 86" fill="none" xmlns="http://www.w3.org/2000/svg">
<path fill-rule="evenodd" clip-rule="evenodd" d="M37.5 0C33.8036 0 27.6268 1.41964 21.8143 3C15.8679 4.60714 9.87323 6.50892 6.34824 7.66071C4.87444 8.14741 3.56783 9.03998 2.57851 10.2359C1.58919 11.4318 0.957281 12.8825 0.755385 14.4214C-2.43747 38.4053 4.97145 56.1803 13.9607 67.9392C17.7728 72.9694 22.318 77.399 27.4447 81.0803C29.5125 82.5428 31.4304 83.6624 33.0589 84.4285C34.5589 85.1356 36.1714 85.7142 37.5 85.7142C38.8286 85.7142 40.4357 85.1356 41.9411 84.4285C43.9044 83.4742 45.7826 82.3541 47.5553 81.0803C52.6821 77.3992 57.2273 72.9695 61.0393 67.9392C70.0285 56.1803 77.4375 38.4053 74.2446 14.4214C74.0431 12.8818 73.4114 11.4302 72.4221 10.2334C71.4328 9.03656 70.126 8.14301 68.6518 7.65535C63.5347 5.97757 58.3778 4.42354 53.1857 2.99464C47.3732 1.425 41.1964 0 37.5 0ZM37.5 26.7857C39.3977 26.7829 41.2352 27.4518 42.687 28.6739C44.1388 29.896 45.1112 31.5925 45.432 33.4629C45.7528 35.3333 45.4014 37.2569 44.4398 38.8929C43.4783 40.529 41.9687 41.772 40.1786 42.4018L42.2411 53.0625C42.3161 53.4502 42.3045 53.8497 42.207 54.2325C42.1095 54.6152 41.9286 54.9716 41.6773 55.2762C41.4259 55.5809 41.1103 55.8261 40.753 55.9945C40.3957 56.1628 40.0057 56.25 39.6107 56.25H35.3893C34.9948 56.2493 34.6053 56.1614 34.2487 55.9927C33.8921 55.8241 33.5772 55.5787 33.3264 55.2742C33.0756 54.9697 32.8952 54.6135 32.798 54.2312C32.7009 53.8488 32.6893 53.4498 32.7643 53.0625L34.8214 42.4018C33.0313 41.772 31.5217 40.529 30.5602 38.8929C29.5986 37.2569 29.2472 35.3333 29.568 33.4629C29.8888 31.5925 30.8612 29.896 32.313 28.6739C33.7648 27.4518 35.6023 26.7829 37.5 26.7857V26.7857Z" fill="white"/>
</svg>
