<svg width="32" height="32" viewBox="0 0 32 32" fill="none" xmlns="http://www.w3.org/2000/svg">
<path d="M21.3332 24V26.6666C21.3332 27.3739 21.0523 28.0521 20.5522 28.5522C20.0521 29.0523 19.3738 29.3333 18.6666 29.3333H7.99992C7.29267 29.3333 6.6144 29.0523 6.1143 28.5522C5.6142 28.0521 5.33325 27.3739 5.33325 26.6666V12C5.33325 11.2927 5.6142 10.6144 6.1143 10.1143C6.6144 9.61424 7.29267 9.33329 7.99992 9.33329H10.6666L21.3332 24ZM19.5799 2.66663H13.3333C12.626 2.66663 11.9477 2.94758 11.4476 3.44767C10.9475 3.94777 10.6666 4.62605 10.6666 5.33329V21.3333C10.6666 22.0405 10.9475 22.7188 11.4476 23.2189C11.9477 23.719 12.626 24 13.3333 24H23.9999C24.7072 24 25.3854 23.719 25.8855 23.2189C26.3856 22.7188 26.6666 22.0405 26.6666 21.3333V9.65596C26.6665 9.30071 26.5955 8.94904 26.4577 8.62162C26.3198 8.2942 26.118 7.99761 25.8639 7.74929L21.4439 3.42663C20.9457 2.9395 20.2767 2.66671 19.5799 2.66663V2.66663Z" stroke="white" stroke-width="2" stroke-linecap="round" stroke-linejoin="round"/>
</svg>
