<svg width="32" height="32" viewBox="0 0 32 32" fill="none" xmlns="http://www.w3.org/2000/svg">
<path fill-rule="evenodd" clip-rule="evenodd" d="M6.5 16.0001C6.49929 18.0619 7.20656 20.0615 8.50349 21.6643C9.80043 23.2672 11.6084 24.3761 13.625 24.8057C15.6416 25.2352 17.7445 24.9593 19.5821 24.0242C21.4197 23.089 22.8804 21.5512 23.72 19.6681L26.502 20.7981C25.3992 23.325 23.4599 25.3952 21.0104 26.6605C18.5608 27.9259 15.7502 28.3093 13.0512 27.7464C10.3522 27.1834 7.92936 25.7083 6.18995 23.5691C4.45053 21.43 3.50065 18.7572 3.5 16.0001C3.49988 13.4955 4.28341 11.0537 5.74076 9.01687C7.19812 6.98 9.25627 5.45018 11.6268 4.64179C13.9972 3.8334 16.5613 3.78696 18.9595 4.50899C21.3577 5.23101 23.4698 6.68532 25 8.66807V5.00007H28V13.0001L26.5 14.5001H19.5V11.5001H23.296C22.3058 9.78342 20.7767 8.44159 18.9459 7.68281C17.1151 6.92403 15.0851 6.79074 13.1709 7.30361C11.2566 7.81648 9.56514 8.94684 8.35896 10.5193C7.15278 12.0917 6.49932 14.0183 6.5 16.0001V16.0001Z" fill="white"/>
</svg>
